{
	"asset":{
		"generator":"Khronos glTF Blender I/O v4.3.47",
		"version":"2.0"
	},
	"extensionsUsed":[
		"KHR_materials_specular",
		"KHR_materials_ior"
	],
	"scene":0,
	"scenes":[
		{
			"name":"Scene",
			"nodes":[
				0
			]
		}
	],
	"nodes":[
		{
			"mesh":0,
			"name":"tripo_node_fdc17924-f668-45af-ab35-d54ebcf5ecda_tripo_material_",
			"rotation":[
				0.70710688829422,
				0,
				0,
				0.7071066498756409
			],
			"scale":[
				1.772661805152893,
				1.7726620435714722,
				1.7726620435714722
			],
			"translation":[
				0.005519238766282797,
				-1.710915446281433,
				0.5576064586639404
			]
		}
	],
	"materials":[
		{
			"doubleSided":true,
			"extensions":{
				"KHR_materials_specular":{
					"specularFactor":0.6666659712791443
				},
				"KHR_materials_ior":{
					"ior":1
				}
			},
			"name":"tripo_material_fdc17924-f668-45af-ab35-d54ebcf5ecda.001",
			"pbrMetallicRoughness":{
				"baseColorTexture":{
					"index":0
				},
				"metallicFactor":0
			}
		}
	],
	"meshes":[
		{
			"name":"tripo_node_fdc17924-f668-45af-ab35-d54ebcf5ecda_tripo_mater",
			"primitives":[
				{
					"attributes":{
						"POSITION":0,
						"NORMAL":1,
						"TEXCOORD_0":2
					},
					"indices":3,
					"material":0
				}
			]
		}
	],
	"textures":[
		{
			"sampler":0,
			"source":0
		}
	],
	"images":[
		{
			"mimeType":"image/png",
			"name":"tripo_material_fdc17924-f668-45af-ab35-d54ebcf5ecda-color",
			"uri":"tripo_material_fdc17924-f668-45af-ab35-d54ebcf5ecda-color.png"
		}
	],
	"accessors":[
		{
			"bufferView":0,
			"componentType":5126,
			"count":45770,
			"max":[
				0.035312000662088394,
				-0.1578650027513504,
				-1.7495900392532349
			],
			"min":[
				-0.03531000018119812,
				-1.1578700542449951,
				-2.0603299140930176
			],
			"type":"VEC3"
		},
		{
			"bufferView":1,
			"componentType":5126,
			"count":45770,
			"type":"VEC3"
		},
		{
			"bufferView":2,
			"componentType":5126,
			"count":45770,
			"type":"VEC2"
		},
		{
			"bufferView":3,
			"componentType":5123,
			"count":254250,
			"type":"SCALAR"
		}
	],
	"bufferViews":[
		{
			"buffer":0,
			"byteLength":549240,
			"byteOffset":0,
			"target":34962
		},
		{
			"buffer":0,
			"byteLength":549240,
			"byteOffset":549240,
			"target":34962
		},
		{
			"buffer":0,
			"byteLength":366160,
			"byteOffset":1098480,
			"target":34962
		},
		{
			"buffer":0,
			"byteLength":508500,
			"byteOffset":1464640,
			"target":34963
		}
	],
	"samplers":[
		{
			"magFilter":9729,
			"minFilter":9987
		}
	],
	"buffers":[
		{
			"byteLength":1973140,
			"uri":"SCCS%20.bin"
		}
	]
}
