{
	"asset":{
		"generator":"Khronos glTF Blender I/O v4.3.47",
		"version":"2.0"
	},
	"scene":0,
	"scenes":[
		{
			"name":"Scene",
			"nodes":[
				0
			]
		}
	],
	"nodes":[
		{
			"mesh":0,
			"name":"tripo_node_8014536f-0ae3-4473-b52d-452c3756a5c5",
			"scale":[
				9.060807228088379,
				9.060807228088379,
				9.060807228088379
			],
			"translation":[
				0,
				0.9612055420875549,
				0
			]
		}
	],
	"materials":[
		{
			"name":"tripo_material_8014536f-0ae3-4473-b52d-452c3756a5c5",
			"normalTexture":{
				"index":0
			},
			"pbrMetallicRoughness":{
				"baseColorTexture":{
					"index":1
				},
				"metallicRoughnessTexture":{
					"index":2
				}
			}
		}
	],
	"meshes":[
		{
			"name":"Mesh_0.011",
			"primitives":[
				{
					"attributes":{
						"POSITION":0,
						"NORMAL":1,
						"TEXCOORD_0":2
					},
					"indices":3,
					"material":0
				}
			]
		}
	],
	"textures":[
		{
			"sampler":0,
			"source":0
		},
		{
			"sampler":0,
			"source":1
		},
		{
			"sampler":0,
			"source":2
		}
	],
	"images":[
		{
			"mimeType":"image/jpeg",
			"name":"Image_2",
			"uri":"Image_2.jpg"
		},
		{
			"mimeType":"image/jpeg",
			"name":"Image_1",
			"uri":"Image_1.jpg"
		},
		{
			"mimeType":"image/jpeg",
			"name":"Image_0",
			"uri":"Image_0.jpg"
		}
	],
	"accessors":[
		{
			"bufferView":0,
			"componentType":5126,
			"count":66575,
			"max":[
				0.32866981625556946,
				0.10836383700370789,
				0.4888298809528351
			],
			"min":[
				-0.3286578953266144,
				-0.10838522762060165,
				-0.5
			],
			"type":"VEC3"
		},
		{
			"bufferView":1,
			"componentType":5126,
			"count":66575,
			"type":"VEC3"
		},
		{
			"bufferView":2,
			"componentType":5126,
			"count":66575,
			"type":"VEC2"
		},
		{
			"bufferView":3,
			"componentType":5125,
			"count":369984,
			"type":"SCALAR"
		}
	],
	"bufferViews":[
		{
			"buffer":0,
			"byteLength":798900,
			"byteOffset":0,
			"target":34962
		},
		{
			"buffer":0,
			"byteLength":798900,
			"byteOffset":798900,
			"target":34962
		},
		{
			"buffer":0,
			"byteLength":532600,
			"byteOffset":1597800,
			"target":34962
		},
		{
			"buffer":0,
			"byteLength":1479936,
			"byteOffset":2130400,
			"target":34963
		}
	],
	"samplers":[
		{
			"magFilter":9729,
			"minFilter":9987
		}
	],
	"buffers":[
		{
			"byteLength":3610336,
			"uri":"sxd.bin"
		}
	]
}
