{
  "accessors": [
    {
      "bufferView": 2,
      "componentType": 5126,
      "count": 108,
      "max": [
        0.19096900522708893,
        0.02724003791809082,
        0.034909963607788086
      ],
      "min": [
        -0.19096900522708893,
        -0.02724003791809082,
        -0.034909963607788086
      ],
      "type": "VEC3"
    },
    {
      "bufferView": 2,
      "byteOffset": 1296,
      "componentType": 5126,
      "count": 108,
      "type": "VEC3"
    },
    {
      "bufferView": 1,
      "componentType": 5126,
      "count": 108,
      "type": "VEC2"
    },
    {
      "bufferView": 0,
      "componentType": 5125,
      "count": 288,
      "type": "SCALAR"
    },
    {
      "bufferView": 2,
      "byteOffset": 2592,
      "componentType": 5126,
      "count": 108,
      "max": [
        0.19024249911308289,
        0.023620009422302246,
        0.030265092849731445
      ],
      "min": [
        -0.19024249911308289,
        -0.023620009422302246,
        -0.030264973640441895
      ],
      "type": "VEC3"
    },
    {
      "bufferView": 2,
      "byteOffset": 3888,
      "componentType": 5126,
      "count": 108,
      "type": "VEC3"
    },
    {
      "bufferView": 1,
      "byteOffset": 864,
      "componentType": 5126,
      "count": 108,
      "type": "VEC2"
    },
    {
      "bufferView": 0,
      "byteOffset": 1152,
      "componentType": 5125,
      "count": 288,
      "type": "SCALAR"
    },
    {
      "bufferView": 2,
      "byteOffset": 5184,
      "componentType": 5126,
      "count": 127,
      "max": [
        0.1884640008211136,
        0.014744997024536133,
        0.01889503002166748
      ],
      "min": [
        -0.1884640008211136,
        -0.014744997024536133,
        -0.01889503002166748
      ],
      "type": "VEC3"
    },
    {
      "bufferView": 2,
      "byteOffset": 6708,
      "componentType": 5126,
      "count": 127,
      "type": "VEC3"
    },
    {
      "bufferView": 1,
      "byteOffset": 1728,
      "componentType": 5126,
      "count": 127,
      "type": "VEC2"
    },
    {
      "bufferView": 0,
      "byteOffset": 2304,
      "componentType": 5125,
      "count": 432,
      "type": "SCALAR"
    },
    {
      "bufferView": 2,
      "byteOffset": 8232,
      "componentType": 5126,
      "count": 288,
      "max": [
        0.19096900522708893,
        0.050100088119506836,
        0.04936492443084717
      ],
      "min": [
        -0.19096900522708893,
        -0.050099968910217285,
        -0.04936504364013672
      ],
      "type": "VEC3"
    },
    {
      "bufferView": 2,
      "byteOffset": 11688,
      "componentType": 5126,
      "count": 288,
      "type": "VEC3"
    },
    {
      "bufferView": 1,
      "byteOffset": 2744,
      "componentType": 5126,
      "count": 288,
      "type": "VEC2"
    },
    {
      "bufferView": 0,
      "byteOffset": 4032,
      "componentType": 5125,
      "count": 1056,
      "type": "SCALAR"
    },
    {
      "bufferView": 2,
      "byteOffset": 15144,
      "componentType": 5126,
      "count": 65532,
      "max": [
        0.3385738134384155,
        -0.036491118371486664,
        0.7691122889518738
      ],
      "min": [
        -0.3679831922054291,
        -1.4841666221618652,
        -0.8581655621528625
      ],
      "type": "VEC3"
    },
    {
      "bufferView": 2,
      "byteOffset": 801528,
      "componentType": 5126,
      "count": 65532,
      "type": "VEC3"
    },
    {
      "bufferView": 1,
      "byteOffset": 5048,
      "componentType": 5126,
      "count": 65532,
      "type": "VEC2"
    },
    {
      "bufferView": 0,
      "byteOffset": 8256,
      "componentType": 5125,
      "count": 65532,
      "type": "SCALAR"
    },
    {
      "bufferView": 2,
      "byteOffset": 1587912,
      "componentType": 5126,
      "count": 65532,
      "max": [
        0.3860894739627838,
        1.4841666221618652,
        0.8606889843940735
      ],
      "min": [
        -0.341188907623291,
        -1.443258285522461,
        -0.8598588109016418
      ],
      "type": "VEC3"
    },
    {
      "bufferView": 2,
      "byteOffset": 2374296,
      "componentType": 5126,
      "count": 65532,
      "type": "VEC3"
    },
    {
      "bufferView": 1,
      "byteOffset": 529304,
      "componentType": 5126,
      "count": 65532,
      "type": "VEC2"
    },
    {
      "bufferView": 0,
      "byteOffset": 270384,
      "componentType": 5125,
      "count": 65532,
      "type": "SCALAR"
    },
    {
      "bufferView": 2,
      "byteOffset": 3160680,
      "componentType": 5126,
      "count": 65532,
      "max": [
        0.43631550669670105,
        1.4841666221618652,
        0.7692388892173767
      ],
      "min": [
        -0.38503384590148926,
        -1.4668312072753906,
        -0.8606890439987183
      ],
      "type": "VEC3"
    },
    {
      "bufferView": 2,
      "byteOffset": 3947064,
      "componentType": 5126,
      "count": 65532,
      "type": "VEC3"
    },
    {
      "bufferView": 1,
      "byteOffset": 1053560,
      "componentType": 5126,
      "count": 65532,
      "type": "VEC2"
    },
    {
      "bufferView": 0,
      "byteOffset": 532512,
      "componentType": 5125,
      "count": 65532,
      "type": "SCALAR"
    },
    {
      "bufferView": 2,
      "byteOffset": 4733448,
      "componentType": 5126,
      "count": 58320,
      "max": [
        0.4381236135959625,
        1.469557285308838,
        0.8516798615455627
      ],
      "min": [
        -0.4381236135959625,
        -0.6929593086242676,
        -0.820195198059082
      ],
      "type": "VEC3"
    },
    {
      "bufferView": 2,
      "byteOffset": 5433288,
      "componentType": 5126,
      "count": 58320,
      "type": "VEC3"
    },
    {
      "bufferView": 1,
      "byteOffset": 1577816,
      "componentType": 5126,
      "count": 58320,
      "type": "VEC2"
    },
    {
      "bufferView": 0,
      "byteOffset": 794640,
      "componentType": 5125,
      "count": 58320,
      "type": "SCALAR"
    },
    {
      "bufferView": 2,
      "byteOffset": 6133128,
      "componentType": 5126,
      "count": 6287,
      "max": [
        0.06995740532875061,
        0.261610746383667,
        0.27556097507476807
      ],
      "min": [
        -0.06995740532875061,
        -0.26161062717437744,
        -0.2755610942840576
      ],
      "type": "VEC3"
    },
    {
      "bufferView": 2,
      "byteOffset": 6208572,
      "componentType": 5126,
      "count": 6287,
      "type": "VEC3"
    },
    {
      "bufferView": 1,
      "byteOffset": 2044376,
      "componentType": 5126,
      "count": 6287,
      "type": "VEC2"
    },
    {
      "bufferView": 0,
      "byteOffset": 1027920,
      "componentType": 5125,
      "count": 34560,
      "type": "SCALAR"
    }
  ],
  "asset": {
    "generator": "fab-model-conversion",
    "version": "2.0"
  },
  "bufferViews": [
    {
      "buffer": 0,
      "byteLength": 1166160,
      "target": 34963
    },
    {
      "buffer": 0,
      "byteLength": 2094672,
      "byteOffset": 1166160,
      "byteStride": 8,
      "target": 34962
    },
    {
      "buffer": 0,
      "byteLength": 6284016,
      "byteOffset": 3260832,
      "byteStride": 12,
      "target": 34962
    }
  ],
  "buffers": [
    {
      "byteLength": 9544848,
      "uri": "scene.bin"
    }
  ],
  "materials": [
    {
      "doubleSided": true,
      "name": "Hard_Shiny_Plastic_White",
      "pbrMetallicRoughness": {
        "metallicFactor": 0.0,
        "roughnessFactor": 0.9577051494623774
      }
    },
    {
      "doubleSided": true,
      "name": "Hard_Shiny_Plastic_Grey",
      "pbrMetallicRoughness": {
        "baseColorFactor": [
          0.515023,
          0.515023,
          0.515023,
          1.0
        ],
        "metallicFactor": 0.0,
        "roughnessFactor": 0.9577051494623774
      }
    },
    {
      "doubleSided": true,
      "name": "Hard_Shiny_Plastic_Black_2",
      "pbrMetallicRoughness": {
        "baseColorFactor": [
          0.0010187756923001998,
          0.0010274254089153144,
          0.001004694758275595,
          1.0
        ],
        "metallicFactor": 0.0,
        "roughnessFactor": 0.0
      }
    },
    {
      "doubleSided": true,
      "name": "Paint_Gloss_White",
      "pbrMetallicRoughness": {
        "metallicFactor": 0.0,
        "roughnessFactor": 0.9577051494623774
      }
    },
    {
      "doubleSided": true,
      "name": "Elephant_Skin_-_JB",
      "pbrMetallicRoughness": {
        "baseColorFactor": [
          0.047963799319879236,
          0.055417560391426354,
          0.03714928376071975,
          1.0
        ],
        "metallicFactor": 0.0,
        "roughnessFactor": 0.8590144647319556
      }
    },
    {
      "doubleSided": true,
      "name": "Senegal_Ivory_-_30161",
      "pbrMetallicRoughness": {
        "baseColorFactor": [
          0.20594136762876553,
          0.1999363527055261,
          0.18312420210604236,
          1.0
        ],
        "metallicFactor": 0.0,
        "roughnessFactor": 0.20178726690136128
      }
    }
  ],
  "meshes": [
    {
      "name": "Layer:RHINO_ED_Hard Shiny Plastic White_0",
      "primitives": [
        {
          "attributes": {
            "NORMAL": 1,
            "POSITION": 0,
            "TEXCOORD_0": 2
          },
          "indices": 3,
          "material": 0,
          "mode": 4
        }
      ]
    },
    {
      "name": "Layer:RHINO_EI_Hard Shiny Plastic Grey_0",
      "primitives": [
        {
          "attributes": {
            "NORMAL": 5,
            "POSITION": 4,
            "TEXCOORD_0": 6
          },
          "indices": 7,
          "material": 1,
          "mode": 4
        }
      ]
    },
    {
      "name": "Layer:RHINO_EP_Hard Shiny Plastic Black #2_0",
      "primitives": [
        {
          "attributes": {
            "NORMAL": 9,
            "POSITION": 8,
            "TEXCOORD_0": 10
          },
          "indices": 11,
          "material": 2,
          "mode": 4
        }
      ]
    },
    {
      "name": "Layer:RHINO_EW_Paint Gloss White_0",
      "primitives": [
        {
          "attributes": {
            "NORMAL": 13,
            "POSITION": 12,
            "TEXCOORD_0": 14
          },
          "indices": 15,
          "material": 3,
          "mode": 4
        }
      ]
    },
    {
      "name": "Layer:RHINO_SKIN_Elephant Skin - JB_0",
      "primitives": [
        {
          "attributes": {
            "NORMAL": 17,
            "POSITION": 16,
            "TEXCOORD_0": 18
          },
          "indices": 19,
          "material": 4,
          "mode": 4
        }
      ]
    },
    {
      "name": "Layer:RHINO_SKIN_Elephant Skin - JB_0",
      "primitives": [
        {
          "attributes": {
            "NORMAL": 21,
            "POSITION": 20,
            "TEXCOORD_0": 22
          },
          "indices": 23,
          "material": 4,
          "mode": 4
        }
      ]
    },
    {
      "name": "Layer:RHINO_SKIN_Elephant Skin - JB_0",
      "primitives": [
        {
          "attributes": {
            "NORMAL": 25,
            "POSITION": 24,
            "TEXCOORD_0": 26
          },
          "indices": 27,
          "material": 4,
          "mode": 4
        }
      ]
    },
    {
      "name": "Layer:RHINO_SKIN_Elephant Skin - JB_0",
      "primitives": [
        {
          "attributes": {
            "NORMAL": 29,
            "POSITION": 28,
            "TEXCOORD_0": 30
          },
          "indices": 31,
          "material": 4,
          "mode": 4
        }
      ]
    },
    {
      "name": "Layer:RHINO_HORN_Senegal Ivory - 30161_0",
      "primitives": [
        {
          "attributes": {
            "NORMAL": 33,
            "POSITION": 32,
            "TEXCOORD_0": 34
          },
          "indices": 35,
          "material": 5,
          "mode": 4
        }
      ]
    }
  ],
  "nodes": [
    {
      "children": [
        1
      ],
      "matrix": [
        1.0,
        0.0,
        0.0,
        0.0,
        0.0,
        2.220446049250313e-16,
        -1.0,
        0.0,
        0.0,
        1.0,
        2.220446049250313e-16,
        0.0,
        0.0,
        0.0,
        0.0,
        1.0
      ],
      "name": "Sketchfab_model"
    },
    {
      "children": [
        2
      ],
      "matrix": [
        1.0,
        0.0,
        0.0,
        0.0,
        0.0,
        0.0,
        1.0,
        0.0,
        0.0,
        -1.0,
        0.0,
        0.0,
        0.0,
        0.0,
        0.0,
        1.0
      ],
      "name": "437031034c5d4fc8b8ded72bfaa084b2.fbx"
    },
    {
      "children": [
        3,
        5,
        7
      ],
      "name": "RootNode"
    },
    {
      "children": [
        4
      ],
      "matrix": [
        0.6401216615322831,
        0.09098019672252967,
        -0.7628675260105642,
        0.0,
        -0.0584807826575726,
        0.99585270186122,
        0.06969500882750448,
        0.0,
        0.7660445525535096,
        -1.948660253922596e-07,
        0.642787479267491,
        0.0,
        -4.554032802581787,
        0.2134263664484024,
        5.4272871017456055,
        1.0
      ],
      "name": "Active Camera"
    },
    {
      "name": "Object_4"
    },
    {
      "children": [
        6
      ],
      "matrix": [
        0.6208851177254366,
        -0.25881905684986584,
        -0.7399421371961571,
        0.0,
        0.16636581854562082,
        0.9659258231413593,
        -0.19826678644778828,
        0.0,
        0.7660444406212451,
        -1.822863557460197e-07,
        0.6427876126631956,
        0.0,
        -12.505900382995605,
        7.2131500244140625,
        14.904000282287598,
        1.0
      ],
      "name": "Camera 1"
    },
    {
      "name": "Object_6"
    },
    {
      "children": [
        8
      ],
      "name": "Default"
    },
    {
      "children": [
        9,
        12,
        15,
        18,
        21,
        27
      ],
      "matrix": [
        1.0,
        0.0,
        0.0,
        0.0,
        0.0,
        4.499999983753611e-08,
        -0.999999999999999,
        0.0,
        0.0,
        0.999999999999999,
        4.499999983753611e-08,
        0.0,
        -0.0007006229716353118,
        0.012247992679476738,
        -0.1484297662973404,
        1.0
      ],
      "name": "object"
    },
    {
      "children": [
        10
      ],
      "matrix": [
        1.0,
        0.0,
        0.0,
        0.0,
        0.0,
        1.0,
        6.617444900424222e-24,
        0.0,
        0.0,
        -6.617444900424222e-24,
        1.0,
        0.0,
        -0.001478999969549477,
        -1.16457998752594,
        1.1832000017166138,
        1.0
      ],
      "name": "Layer:RHINO_ED"
    },
    {
      "children": [
        11
      ],
      "matrix": [
        1.0,
        0.0,
        0.0,
        0.0,
        0.0,
        1.0,
        6.617444900424222e-24,
        0.0,
        0.0,
        -6.617444900424222e-24,
        1.0,
        0.0,
        0.0,
        0.0,
        0.0,
        1.0
      ],
      "name": "Layer:RHINO_ED"
    },
    {
      "mesh": 0,
      "name": "Layer:RHINO_ED_Hard Shiny Plastic White_0"
    },
    {
      "children": [
        13
      ],
      "matrix": [
        1.0,
        0.0,
        0.0,
        0.0,
        0.0,
        1.0,
        6.617444900424222e-24,
        0.0,
        0.0,
        -6.617444900424222e-24,
        1.0,
        0.0,
        -0.001479509985074401,
        -1.1666100025177002,
        1.182729959487915,
        1.0
      ],
      "name": "Layer:RHINO_EI"
    },
    {
      "children": [
        14
      ],
      "matrix": [
        1.0,
        0.0,
        0.0,
        0.0,
        0.0,
        1.0,
        6.617444900424222e-24,
        0.0,
        0.0,
        -6.617444900424222e-24,
        1.0,
        0.0,
        0.0,
        0.0,
        0.0,
        1.0
      ],
      "name": "Layer:RHINO_EI"
    },
    {
      "mesh": 1,
      "name": "Layer:RHINO_EI_Hard Shiny Plastic Grey_0"
    },
    {
      "children": [
        16
      ],
      "matrix": [
        1.0,
        0.0,
        0.0,
        0.0,
        0.0,
        1.0,
        6.617444900424222e-24,
        0.0,
        0.0,
        -6.617444900424222e-24,
        1.0,
        0.0,
        -0.001478999969549477,
        -1.1715799570083618,
        1.1815999746322632,
        1.0
      ],
      "name": "Layer:RHINO_EP"
    },
    {
      "children": [
        17
      ],
      "matrix": [
        1.0,
        0.0,
        0.0,
        0.0,
        0.0,
        1.0,
        6.617444900424222e-24,
        0.0,
        0.0,
        -6.617444900424222e-24,
        1.0,
        0.0,
        0.0,
        0.0,
        0.0,
        1.0
      ],
      "name": "Layer:RHINO_EP"
    },
    {
      "mesh": 2,
      "name": "Layer:RHINO_EP_Hard Shiny Plastic Black #2_0"
    },
    {
      "children": [
        19
      ],
      "matrix": [
        1.0,
        0.0,
        0.0,
        0.0,
        0.0,
        1.0,
        6.617444900424222e-24,
        0.0,
        0.0,
        -6.617444900424222e-24,
        1.0,
        0.0,
        -0.001478999969549477,
        -1.1417200565338135,
        1.1884000301361084,
        1.0
      ],
      "name": "Layer:RHINO_EW"
    },
    {
      "children": [
        20
      ],
      "matrix": [
        1.0,
        0.0,
        0.0,
        0.0,
        0.0,
        1.0,
        6.617444900424222e-24,
        0.0,
        0.0,
        -6.617444900424222e-24,
        1.0,
        0.0,
        0.0,
        0.0,
        0.0,
        1.0
      ],
      "name": "Layer:RHINO_EW"
    },
    {
      "mesh": 3,
      "name": "Layer:RHINO_EW_Paint Gloss White_0"
    },
    {
      "children": [
        22
      ],
      "matrix": [
        1.0,
        0.0,
        0.0,
        0.0,
        0.0,
        1.0,
        6.617444900424222e-24,
        0.0,
        0.0,
        -6.617444900424222e-24,
        1.0,
        0.0,
        0.0007006229716353118,
        -0.06999550014734268,
        0.8484410047531128,
        1.0
      ],
      "name": "Layer:RHINO_SKIN"
    },
    {
      "children": [
        23,
        24,
        25,
        26
      ],
      "matrix": [
        1.0,
        0.0,
        0.0,
        0.0,
        0.0,
        1.0,
        6.617444900424222e-24,
        0.0,
        0.0,
        -6.617444900424222e-24,
        1.0,
        0.0,
        0.0,
        0.0,
        0.0,
        1.0
      ],
      "name": "Layer:RHINO_SKIN"
    },
    {
      "mesh": 4,
      "name": "Layer:RHINO_SKIN_Elephant Skin - JB_0"
    },
    {
      "mesh": 5,
      "name": "Layer:RHINO_SKIN_Elephant Skin - JB_0"
    },
    {
      "mesh": 6,
      "name": "Layer:RHINO_SKIN_Elephant Skin - JB_0"
    },
    {
      "mesh": 7,
      "name": "Layer:RHINO_SKIN_Elephant Skin - JB_0"
    },
    {
      "children": [
        28
      ],
      "matrix": [
        1.0,
        0.0,
        0.0,
        0.0,
        0.0,
        1.0,
        6.617444900424222e-24,
        0.0,
        0.0,
        -6.617444900424222e-24,
        1.0,
        0.0,
        -0.0011325000086799264,
        -1.4494199752807617,
        1.390779972076416,
        1.0
      ],
      "name": "Layer:RHINO_HORN"
    },
    {
      "children": [
        29
      ],
      "matrix": [
        1.0,
        0.0,
        0.0,
        0.0,
        0.0,
        1.0,
        6.617444900424222e-24,
        0.0,
        0.0,
        -6.617444900424222e-24,
        1.0,
        0.0,
        0.0,
        0.0,
        0.0,
        1.0
      ],
      "name": "Layer:RHINO_HORN"
    },
    {
      "mesh": 8,
      "name": "Layer:RHINO_HORN_Senegal Ivory - 30161_0"
    }
  ],
  "scene": 0,
  "scenes": [
    {
      "name": "Sketchfab_Scene",
      "nodes": [
        0
      ]
    }
  ]
}
