{
	"asset":{
		"generator":"Khronos glTF Blender I/O v4.3.47",
		"version":"2.0"
	},
	"scene":0,
	"scenes":[
		{
			"name":"Scene",
			"nodes":[
				0
			]
		}
	],
	"nodes":[
		{
			"mesh":0,
			"name":"tripo_node_b4de15db-d3ca-43bb-8299-a5b4935e1741",
			"scale":[
				6.4806132316589355,
				6.4806132316589355,
				6.4806132316589355
			],
			"translation":[
				0,
				0.5321446657180786,
				0.09387358278036118
			]
		}
	],
	"materials":[
		{
			"name":"tripo_material_b4de15db-d3ca-43bb-8299-a5b4935e1741",
			"normalTexture":{
				"index":0
			},
			"pbrMetallicRoughness":{
				"baseColorTexture":{
					"index":1
				},
				"metallicRoughnessTexture":{
					"index":2
				}
			}
		}
	],
	"meshes":[
		{
			"name":"Mesh_0.004",
			"primitives":[
				{
					"attributes":{
						"POSITION":0,
						"NORMAL":1,
						"TEXCOORD_0":2
					},
					"indices":3,
					"material":0
				}
			]
		}
	],
	"textures":[
		{
			"sampler":0,
			"source":0
		},
		{
			"sampler":0,
			"source":1
		},
		{
			"sampler":0,
			"source":2
		}
	],
	"images":[
		{
			"mimeType":"image/jpeg",
			"name":"Image_2",
			"uri":"Image_2.jpg"
		},
		{
			"mimeType":"image/jpeg",
			"name":"Image_1",
			"uri":"Image_1.jpg"
		},
		{
			"mimeType":"image/jpeg",
			"name":"Image_0",
			"uri":"Image_0.jpg"
		}
	],
	"accessors":[
		{
			"bufferView":0,
			"componentType":5126,
			"count":56391,
			"max":[
				0.5,
				0.15512628853321075,
				0.06575895845890045
			],
			"min":[
				-0.5,
				-0.15513435006141663,
				-0.06577982753515244
			],
			"type":"VEC3"
		},
		{
			"bufferView":1,
			"componentType":5126,
			"count":56391,
			"type":"VEC3"
		},
		{
			"bufferView":2,
			"componentType":5126,
			"count":56391,
			"type":"VEC2"
		},
		{
			"bufferView":3,
			"componentType":5123,
			"count":311592,
			"type":"SCALAR"
		}
	],
	"bufferViews":[
		{
			"buffer":0,
			"byteLength":676692,
			"byteOffset":0,
			"target":34962
		},
		{
			"buffer":0,
			"byteLength":676692,
			"byteOffset":676692,
			"target":34962
		},
		{
			"buffer":0,
			"byteLength":451128,
			"byteOffset":1353384,
			"target":34962
		},
		{
			"buffer":0,
			"byteLength":623184,
			"byteOffset":1804512,
			"target":34963
		}
	],
	"samplers":[
		{
			"magFilter":9729,
			"minFilter":9987
		}
	],
	"buffers":[
		{
			"byteLength":2427696,
			"uri":"sxd.bin"
		}
	]
}
