{
	"asset":{
		"generator":"Khronos glTF Blender I/O v4.3.47",
		"version":"2.0"
	},
	"scene":0,
	"scenes":[
		{
			"name":"Scene",
			"nodes":[
				0
			]
		}
	],
	"nodes":[
		{
			"mesh":0,
			"name":"tripo_node_778685a3-c964-433b-9f3b-2429e884bbd2",
			"scale":[
				4.5424580574035645,
				4.5424580574035645,
				4.5424580574035645
			],
			"translation":[
				0,
				1.1298120021820068,
				0
			]
		}
	],
	"materials":[
		{
			"name":"tripo_material_778685a3-c964-433b-9f3b-2429e884bbd2",
			"normalTexture":{
				"index":0
			},
			"pbrMetallicRoughness":{
				"baseColorTexture":{
					"index":1
				},
				"metallicRoughnessTexture":{
					"index":2
				}
			}
		}
	],
	"meshes":[
		{
			"name":"Mesh_0",
			"primitives":[
				{
					"attributes":{
						"POSITION":0,
						"NORMAL":1,
						"TEXCOORD_0":2
					},
					"indices":3,
					"material":0
				}
			]
		}
	],
	"textures":[
		{
			"sampler":0,
			"source":0
		},
		{
			"sampler":0,
			"source":1
		},
		{
			"sampler":0,
			"source":2
		}
	],
	"images":[
		{
			"mimeType":"image/jpeg",
			"name":"Image_2",
			"uri":"Image_2.jpg"
		},
		{
			"mimeType":"image/jpeg",
			"name":"Image_1",
			"uri":"Image_1.jpg"
		},
		{
			"mimeType":"image/jpeg",
			"name":"Image_0",
			"uri":"Image_0.jpg"
		}
	],
	"accessors":[
		{
			"bufferView":0,
			"componentType":5126,
			"count":182351,
			"max":[
				0.5,
				0.16327185928821564,
				0.46779903769493103
			],
			"min":[
				-0.5,
				-0.16328616440296173,
				-0.4678049385547638
			],
			"type":"VEC3"
		},
		{
			"bufferView":1,
			"componentType":5126,
			"count":182351,
			"type":"VEC3"
		},
		{
			"bufferView":2,
			"componentType":5126,
			"count":182351,
			"type":"VEC2"
		},
		{
			"bufferView":3,
			"componentType":5125,
			"count":1034916,
			"type":"SCALAR"
		}
	],
	"bufferViews":[
		{
			"buffer":0,
			"byteLength":2188212,
			"byteOffset":0,
			"target":34962
		},
		{
			"buffer":0,
			"byteLength":2188212,
			"byteOffset":2188212,
			"target":34962
		},
		{
			"buffer":0,
			"byteLength":1458808,
			"byteOffset":4376424,
			"target":34962
		},
		{
			"buffer":0,
			"byteLength":4139664,
			"byteOffset":5835232,
			"target":34963
		}
	],
	"samplers":[
		{
			"magFilter":9729,
			"minFilter":9987
		}
	],
	"buffers":[
		{
			"byteLength":9974896,
			"uri":"fedf.bin"
		}
	]
}
