{
	"asset":{
		"generator":"Khronos glTF Blender I/O v4.3.47",
		"version":"2.0"
	},
	"extensionsUsed":[
		"KHR_materials_specular",
		"KHR_materials_ior"
	],
	"scene":0,
	"scenes":[
		{
			"name":"Scene",
			"nodes":[
				0
			]
		}
	],
	"nodes":[
		{
			"mesh":0,
			"name":"tripo_node_0108da37-904c-4c26-8efe-8e28752e8c95",
			"scale":[
				1.6550965309143066,
				1.6550965309143066,
				1.6550965309143066
			],
			"translation":[
				0,
				0.5202945470809937,
				-0.05274229496717453
			]
		}
	],
	"materials":[
		{
			"doubleSided":true,
			"extensions":{
				"KHR_materials_specular":{
					"specularFactor":0
				},
				"KHR_materials_ior":{
					"ior":1.0999999046325684
				}
			},
			"name":"tripo_mat_0108da37-904c-4c26-8efe-8e28752e8c95",
			"normalTexture":{
				"index":0
			},
			"pbrMetallicRoughness":{
				"baseColorTexture":{
					"index":1
				},
				"metallicFactor":0,
				"metallicRoughnessTexture":{
					"index":2
				}
			}
		}
	],
	"meshes":[
		{
			"name":"tripo_mesh_0108da37-904c-4c26-8efe-8e28752e8c95",
			"primitives":[
				{
					"attributes":{
						"POSITION":0,
						"NORMAL":1,
						"TEXCOORD_0":2
					},
					"indices":3,
					"material":0
				}
			]
		}
	],
	"textures":[
		{
			"sampler":0,
			"source":0
		},
		{
			"sampler":0,
			"source":1
		},
		{
			"sampler":0,
			"source":2
		}
	],
	"images":[
		{
			"mimeType":"image/jpeg",
			"name":"Normal_Bake",
			"uri":"Normal_Bake.jpg"
		},
		{
			"mimeType":"image/jpeg",
			"name":"Diffuse_Bake",
			"uri":"Diffuse_Bake.jpg"
		},
		{
			"mimeType":"image/png",
			"name":"tripo_image_0108da37-904c-4c26-8efe-8e28752e8c95_1-tripo_image_",
			"uri":"tripo_image_0108da37-904c-4c26-8efe-8e28752e8c95_1-tripo_image_.png"
		}
	],
	"accessors":[
		{
			"bufferView":0,
			"componentType":5126,
			"count":127728,
			"max":[
				0.18386012315750122,
				0.4992966949939728,
				0.3669321835041046
			],
			"min":[
				-0.18407870829105377,
				-0.4967864751815796,
				-0.3656863868236542
			],
			"type":"VEC3"
		},
		{
			"bufferView":1,
			"componentType":5126,
			"count":127728,
			"type":"VEC3"
		},
		{
			"bufferView":2,
			"componentType":5126,
			"count":127728,
			"type":"VEC2"
		},
		{
			"bufferView":3,
			"componentType":5125,
			"count":128067,
			"type":"SCALAR"
		}
	],
	"bufferViews":[
		{
			"buffer":0,
			"byteLength":1532736,
			"byteOffset":0,
			"target":34962
		},
		{
			"buffer":0,
			"byteLength":1532736,
			"byteOffset":1532736,
			"target":34962
		},
		{
			"buffer":0,
			"byteLength":1021824,
			"byteOffset":3065472,
			"target":34962
		},
		{
			"buffer":0,
			"byteLength":512268,
			"byteOffset":4087296,
			"target":34963
		}
	],
	"samplers":[
		{
			"magFilter":9729,
			"minFilter":9987
		}
	],
	"buffers":[
		{
			"byteLength":4599564,
			"uri":"MALEO.bin"
		}
	]
}
