{
	"asset":{
		"generator":"Khronos glTF Blender I/O v4.3.47",
		"version":"2.0"
	},
	"scene":0,
	"scenes":[
		{
			"name":"Scene",
			"nodes":[
				0
			]
		}
	],
	"nodes":[
		{
			"mesh":0,
			"name":"tripo_node_a984e137-bc42-451b-9c57-70d68ec483a0",
			"scale":[
				3.709416627883911,
				3.709416627883911,
				3.709416627883911
			]
		}
	],
	"materials":[
		{
			"name":"tripo_material_a984e137-bc42-451b-9c57-70d68ec483a0",
			"normalTexture":{
				"index":0
			},
			"pbrMetallicRoughness":{
				"baseColorTexture":{
					"index":1
				},
				"metallicRoughnessTexture":{
					"index":2
				}
			}
		}
	],
	"meshes":[
		{
			"name":"Mesh_0.012",
			"primitives":[
				{
					"attributes":{
						"POSITION":0,
						"NORMAL":1,
						"TEXCOORD_0":2
					},
					"indices":3,
					"material":0
				}
			]
		}
	],
	"textures":[
		{
			"sampler":0,
			"source":0
		},
		{
			"sampler":0,
			"source":1
		},
		{
			"sampler":0,
			"source":2
		}
	],
	"images":[
		{
			"mimeType":"image/jpeg",
			"name":"Image_2",
			"uri":"Image_2.jpg"
		},
		{
			"mimeType":"image/jpeg",
			"name":"Image_1",
			"uri":"Image_1.jpg"
		},
		{
			"mimeType":"image/jpeg",
			"name":"Image_0",
			"uri":"Image_0.jpg"
		}
	],
	"accessors":[
		{
			"bufferView":0,
			"componentType":5126,
			"count":101247,
			"max":[
				0.14329230785369873,
				0.3842672109603882,
				0.5
			],
			"min":[
				-0.14328524470329285,
				-0.38427335023880005,
				-0.5
			],
			"type":"VEC3"
		},
		{
			"bufferView":1,
			"componentType":5126,
			"count":101247,
			"type":"VEC3"
		},
		{
			"bufferView":2,
			"componentType":5126,
			"count":101247,
			"type":"VEC2"
		},
		{
			"bufferView":3,
			"componentType":5125,
			"count":571920,
			"type":"SCALAR"
		}
	],
	"bufferViews":[
		{
			"buffer":0,
			"byteLength":1214964,
			"byteOffset":0,
			"target":34962
		},
		{
			"buffer":0,
			"byteLength":1214964,
			"byteOffset":1214964,
			"target":34962
		},
		{
			"buffer":0,
			"byteLength":809976,
			"byteOffset":2429928,
			"target":34962
		},
		{
			"buffer":0,
			"byteLength":2287680,
			"byteOffset":3239904,
			"target":34963
		}
	],
	"samplers":[
		{
			"magFilter":9729,
			"minFilter":9987
		}
	],
	"buffers":[
		{
			"byteLength":5527584,
			"uri":"sxd.bin"
		}
	]
}
