{
	"asset":{
		"generator":"Khronos glTF Blender I/O v4.3.47",
		"version":"2.0"
	},
	"scene":0,
	"scenes":[
		{
			"name":"Scene",
			"nodes":[
				0
			]
		}
	],
	"nodes":[
		{
			"mesh":0,
			"name":"tripo_node_9f09e2d0-3b87-4d8b-add7-9646e3274681",
			"scale":[
				4.095303535461426,
				4.095303535461426,
				4.095303535461426
			],
			"translation":[
				0,
				0.15506480634212494,
				0
			]
		}
	],
	"materials":[
		{
			"doubleSided":true,
			"name":"tripo_material_9f09e2d0-3b87-4d8b-add7-9646e3274681.002",
			"pbrMetallicRoughness":{
				"metallicFactor":0,
				"roughnessFactor":0
			}
		}
	],
	"meshes":[
		{
			"name":"tripo_node_9f09e2d0-3b87-4d8b-add7-9646e3274681.001",
			"primitives":[
				{
					"attributes":{
						"POSITION":0,
						"NORMAL":1,
						"TEXCOORD_0":2,
						"COLOR_0":3,
						"COLOR_1":4
					},
					"indices":5,
					"material":0
				}
			]
		}
	],
	"accessors":[
		{
			"bufferView":0,
			"componentType":5126,
			"count":963976,
			"max":[
				0.46102237701416016,
				0.529420018196106,
				0.32999932765960693
			],
			"min":[
				-0.052494000643491745,
				-0.03473348543047905,
				-0.5
			],
			"type":"VEC3"
		},
		{
			"bufferView":1,
			"componentType":5126,
			"count":963976,
			"type":"VEC3"
		},
		{
			"bufferView":2,
			"componentType":5126,
			"count":963976,
			"type":"VEC2"
		},
		{
			"bufferView":3,
			"componentType":5126,
			"count":963976,
			"type":"VEC3"
		},
		{
			"bufferView":4,
			"componentType":5123,
			"count":963976,
			"normalized":true,
			"type":"VEC4"
		},
		{
			"bufferView":5,
			"componentType":5125,
			"count":965022,
			"type":"SCALAR"
		}
	],
	"bufferViews":[
		{
			"buffer":0,
			"byteLength":11567712,
			"byteOffset":0,
			"target":34962
		},
		{
			"buffer":0,
			"byteLength":11567712,
			"byteOffset":11567712,
			"target":34962
		},
		{
			"buffer":0,
			"byteLength":7711808,
			"byteOffset":23135424,
			"target":34962
		},
		{
			"buffer":0,
			"byteLength":11567712,
			"byteOffset":30847232,
			"target":34962
		},
		{
			"buffer":0,
			"byteLength":7711808,
			"byteOffset":42414944,
			"target":34962
		},
		{
			"buffer":0,
			"byteLength":3860088,
			"byteOffset":50126752,
			"target":34963
		}
	],
	"buffers":[
		{
			"byteLength":53986840,
			"uri":"sxd.bin"
		}
	]
}
