{
	"asset":{
		"generator":"Khronos glTF Blender I/O v4.3.47",
		"version":"2.0"
	},
	"extensionsUsed":[
		"KHR_materials_specular"
	],
	"scene":0,
	"scenes":[
		{
			"name":"Scene",
			"nodes":[
				0
			]
		}
	],
	"nodes":[
		{
			"mesh":0,
			"name":"tripo_node_bc63c935-71c9-40fe-87e3-c4c5f3e447f2",
			"scale":[
				2.4494071006774902,
				2.4494071006774902,
				2.4494071006774902
			],
			"translation":[
				0,
				0.40812090039253235,
				0
			]
		}
	],
	"materials":[
		{
			"extensions":{
				"KHR_materials_specular":{
					"specularFactor":0.6000000238418579
				}
			},
			"name":"tripo_material_bc63c935-71c9-40fe-87e3-c4c5f3e447f2",
			"normalTexture":{
				"index":0
			},
			"pbrMetallicRoughness":{
				"baseColorTexture":{
					"index":1
				},
				"metallicRoughnessTexture":{
					"index":2
				}
			}
		}
	],
	"meshes":[
		{
			"name":"Mesh_0.008",
			"primitives":[
				{
					"attributes":{
						"POSITION":0,
						"NORMAL":1,
						"TEXCOORD_0":2
					},
					"indices":3,
					"material":0
				}
			]
		}
	],
	"textures":[
		{
			"sampler":0,
			"source":0
		},
		{
			"sampler":0,
			"source":1
		},
		{
			"sampler":0,
			"source":2
		}
	],
	"images":[
		{
			"mimeType":"image/jpeg",
			"name":"Image_2",
			"uri":"Image_2.jpg"
		},
		{
			"mimeType":"image/jpeg",
			"name":"Image_1",
			"uri":"Image_1.jpg"
		},
		{
			"mimeType":"image/jpeg",
			"name":"Image_0",
			"uri":"Image_0.jpg"
		}
	],
	"accessors":[
		{
			"bufferView":0,
			"componentType":5126,
			"count":67508,
			"max":[
				0.19009406864643097,
				0.18885326385498047,
				0.5
			],
			"min":[
				-0.19011712074279785,
				-0.1888553351163864,
				-0.5
			],
			"type":"VEC3"
		},
		{
			"bufferView":1,
			"componentType":5126,
			"count":67508,
			"type":"VEC3"
		},
		{
			"bufferView":2,
			"componentType":5126,
			"count":67508,
			"type":"VEC2"
		},
		{
			"bufferView":3,
			"componentType":5125,
			"count":381294,
			"type":"SCALAR"
		}
	],
	"bufferViews":[
		{
			"buffer":0,
			"byteLength":810096,
			"byteOffset":0,
			"target":34962
		},
		{
			"buffer":0,
			"byteLength":810096,
			"byteOffset":810096,
			"target":34962
		},
		{
			"buffer":0,
			"byteLength":540064,
			"byteOffset":1620192,
			"target":34962
		},
		{
			"buffer":0,
			"byteLength":1525176,
			"byteOffset":2160256,
			"target":34963
		}
	],
	"samplers":[
		{
			"magFilter":9729,
			"minFilter":9987
		}
	],
	"buffers":[
		{
			"byteLength":3685432,
			"uri":"HIU.bin"
		}
	]
}
