{
	"asset":{
		"generator":"Khronos glTF Blender I/O v4.3.47",
		"version":"2.0"
	},
	"scene":0,
	"scenes":[
		{
			"name":"Scene",
			"nodes":[
				0
			]
		}
	],
	"nodes":[
		{
			"mesh":0,
			"name":"tripo_node_3491f3a9-55a7-4c1c-9149-f05ce8136bfa",
			"scale":[
				2.534773826599121,
				2.534773826599121,
				2.534773826599121
			],
			"translation":[
				0.11790403723716736,
				0.16189660131931305,
				0
			]
		}
	],
	"materials":[
		{
			"name":"tripo_material_3491f3a9-55a7-4c1c-9149-f05ce8136bfa",
			"normalTexture":{
				"index":0
			},
			"pbrMetallicRoughness":{
				"baseColorTexture":{
					"index":1
				},
				"metallicRoughnessTexture":{
					"index":2
				}
			}
		}
	],
	"meshes":[
		{
			"name":"Mesh_0",
			"primitives":[
				{
					"attributes":{
						"POSITION":0,
						"NORMAL":1,
						"TEXCOORD_0":2
					},
					"indices":3,
					"material":0
				}
			]
		}
	],
	"textures":[
		{
			"sampler":0,
			"source":0
		},
		{
			"sampler":0,
			"source":1
		},
		{
			"sampler":0,
			"source":2
		}
	],
	"images":[
		{
			"mimeType":"image/jpeg",
			"name":"Image_2",
			"uri":"Image_2.jpg"
		},
		{
			"mimeType":"image/jpeg",
			"name":"Image_1",
			"uri":"Image_1.jpg"
		},
		{
			"mimeType":"image/jpeg",
			"name":"Image_0",
			"uri":"Image_0.jpg"
		}
	],
	"accessors":[
		{
			"bufferView":0,
			"componentType":5126,
			"count":89232,
			"max":[
				0.14491255581378937,
				0.21897819638252258,
				0.5
			],
			"min":[
				-0.14366695284843445,
				-0.21897578239440918,
				-0.5
			],
			"type":"VEC3"
		},
		{
			"bufferView":1,
			"componentType":5126,
			"count":89232,
			"type":"VEC3"
		},
		{
			"bufferView":2,
			"componentType":5126,
			"count":89232,
			"type":"VEC2"
		},
		{
			"bufferView":3,
			"componentType":5125,
			"count":506316,
			"type":"SCALAR"
		}
	],
	"bufferViews":[
		{
			"buffer":0,
			"byteLength":1070784,
			"byteOffset":0,
			"target":34962
		},
		{
			"buffer":0,
			"byteLength":1070784,
			"byteOffset":1070784,
			"target":34962
		},
		{
			"buffer":0,
			"byteLength":713856,
			"byteOffset":2141568,
			"target":34962
		},
		{
			"buffer":0,
			"byteLength":2025264,
			"byteOffset":2855424,
			"target":34963
		}
	],
	"samplers":[
		{
			"magFilter":9729,
			"minFilter":9987
		}
	],
	"buffers":[
		{
			"byteLength":4880688,
			"uri":"MACAN.bin"
		}
	]
}
