{
	"asset":{
		"generator":"Khronos glTF Blender I/O v4.3.47",
		"version":"2.0"
	},
	"extensionsUsed":[
		"KHR_materials_specular",
		"KHR_materials_ior"
	],
	"scene":0,
	"scenes":[
		{
			"name":"Scene",
			"nodes":[
				0
			]
		}
	],
	"nodes":[
		{
			"mesh":0,
			"name":"tripo_node_a6748f5b-6626-4ace-9582-0d24b60a0041",
			"scale":[
				1.834365725517273,
				1.834365725517273,
				1.834365725517273
			],
			"translation":[
				-0.19069017469882965,
				0.44098424911499023,
				-0.16909122467041016
			]
		}
	],
	"materials":[
		{
			"extensions":{
				"KHR_materials_specular":{
					"specularFactor":0.6000000238418579
				},
				"KHR_materials_ior":{
					"ior":1
				}
			},
			"name":"tripo_material_a6748f5b-6626-4ace-9582-0d24b60a0041",
			"normalTexture":{
				"index":0
			},
			"pbrMetallicRoughness":{
				"baseColorTexture":{
					"index":1
				},
				"metallicRoughnessTexture":{
					"index":2
				}
			}
		}
	],
	"meshes":[
		{
			"name":"Mesh_0.009",
			"primitives":[
				{
					"attributes":{
						"POSITION":0,
						"NORMAL":1,
						"TEXCOORD_0":2
					},
					"indices":3,
					"material":0
				}
			]
		}
	],
	"textures":[
		{
			"sampler":0,
			"source":0
		},
		{
			"sampler":0,
			"source":1
		},
		{
			"sampler":0,
			"source":2
		}
	],
	"images":[
		{
			"mimeType":"image/jpeg",
			"name":"Image_2",
			"uri":"Image_2.jpg"
		},
		{
			"mimeType":"image/jpeg",
			"name":"Image_1",
			"uri":"Image_1.jpg"
		},
		{
			"mimeType":"image/jpeg",
			"name":"Image_0",
			"uri":"Image_0.jpg"
		}
	],
	"accessors":[
		{
			"bufferView":0,
			"componentType":5126,
			"count":151694,
			"max":[
				0.22423937916755676,
				0.5,
				0.19640247523784637
			],
			"min":[
				-0.22421328723430634,
				-0.5,
				-0.19638273119926453
			],
			"type":"VEC3"
		},
		{
			"bufferView":1,
			"componentType":5126,
			"count":151694,
			"type":"VEC3"
		},
		{
			"bufferView":2,
			"componentType":5126,
			"count":151694,
			"type":"VEC2"
		},
		{
			"bufferView":3,
			"componentType":5125,
			"count":844245,
			"type":"SCALAR"
		}
	],
	"bufferViews":[
		{
			"buffer":0,
			"byteLength":1820328,
			"byteOffset":0,
			"target":34962
		},
		{
			"buffer":0,
			"byteLength":1820328,
			"byteOffset":1820328,
			"target":34962
		},
		{
			"buffer":0,
			"byteLength":1213552,
			"byteOffset":3640656,
			"target":34962
		},
		{
			"buffer":0,
			"byteLength":3376980,
			"byteOffset":4854208,
			"target":34963
		}
	],
	"samplers":[
		{
			"magFilter":9729,
			"minFilter":9987
		}
	],
	"buffers":[
		{
			"byteLength":8231188,
			"uri":"ELANG%20JAWA.bin"
		}
	]
}
