{
	"asset":{
		"generator":"Khronos glTF Blender I/O v4.3.47",
		"version":"2.0"
	},
	"extensionsUsed":[
		"KHR_materials_specular",
		"KHR_materials_ior"
	],
	"scene":0,
	"scenes":[
		{
			"name":"Scene",
			"nodes":[
				0
			]
		}
	],
	"nodes":[
		{
			"mesh":0,
			"name":"tripo_node_7b5f2be7-e1b1-44b9-9dbb-dfd1eaf9afd8",
			"translation":[
				0,
				0.26187121868133545,
				0
			]
		}
	],
	"materials":[
		{
			"extensions":{
				"KHR_materials_specular":{
					"specularFactor":0
				},
				"KHR_materials_ior":{
					"ior":1
				}
			},
			"name":"tripo_material_7b5f2be7-e1b1-44b9-9dbb-dfd1eaf9afd8",
			"normalTexture":{
				"index":0
			},
			"pbrMetallicRoughness":{
				"baseColorTexture":{
					"index":1
				},
				"metallicFactor":0,
				"metallicRoughnessTexture":{
					"index":2
				}
			}
		}
	],
	"meshes":[
		{
			"name":"Mesh_0.006",
			"primitives":[
				{
					"attributes":{
						"POSITION":0,
						"NORMAL":1,
						"TEXCOORD_0":2
					},
					"indices":3,
					"material":0
				}
			]
		}
	],
	"textures":[
		{
			"sampler":0,
			"source":0
		},
		{
			"sampler":0,
			"source":1
		},
		{
			"sampler":0,
			"source":2
		}
	],
	"images":[
		{
			"mimeType":"image/jpeg",
			"name":"Image_2",
			"uri":"Image_2.jpg"
		},
		{
			"mimeType":"image/jpeg",
			"name":"Image_1",
			"uri":"Image_1.jpg"
		},
		{
			"mimeType":"image/png",
			"name":"Image_0",
			"uri":"Image_0.png"
		}
	],
	"accessors":[
		{
			"bufferView":0,
			"componentType":5126,
			"count":242639,
			"max":[
				0.5,
				0.277499794960022,
				0.4148544371128082
			],
			"min":[
				-0.5,
				-0.27752676606178284,
				-0.41484707593917847
			],
			"type":"VEC3"
		},
		{
			"bufferView":1,
			"componentType":5126,
			"count":242639,
			"type":"VEC3"
		},
		{
			"bufferView":2,
			"componentType":5126,
			"count":242639,
			"type":"VEC2"
		},
		{
			"bufferView":3,
			"componentType":5125,
			"count":1390566,
			"type":"SCALAR"
		}
	],
	"bufferViews":[
		{
			"buffer":0,
			"byteLength":2911668,
			"byteOffset":0,
			"target":34962
		},
		{
			"buffer":0,
			"byteLength":2911668,
			"byteOffset":2911668,
			"target":34962
		},
		{
			"buffer":0,
			"byteLength":1941112,
			"byteOffset":5823336,
			"target":34962
		},
		{
			"buffer":0,
			"byteLength":5562264,
			"byteOffset":7764448,
			"target":34963
		}
	],
	"samplers":[
		{
			"magFilter":9729,
			"minFilter":9987
		}
	],
	"buffers":[
		{
			"byteLength":13326712,
			"uri":"KODOK%20MERAH.bin"
		}
	]
}
