{
	"asset":{
		"generator":"Khronos glTF Blender I/O v4.3.47",
		"version":"2.0"
	},
	"extensionsUsed":[
		"KHR_materials_specular"
	],
	"scene":0,
	"scenes":[
		{
			"name":"Scene",
			"nodes":[
				0
			]
		}
	],
	"nodes":[
		{
			"mesh":0,
			"name":"tripo_node_4949692e-aefd-4e0e-abd9-3b132a719624",
			"scale":[
				2.0630829334259033,
				2.0630829334259033,
				2.0630829334259033
			],
			"translation":[
				0,
				0.23684392869472504,
				0
			]
		}
	],
	"materials":[
		{
			"extensions":{
				"KHR_materials_specular":{
					"specularFactor":0
				}
			},
			"name":"tripo_material_4949692e-aefd-4e0e-abd9-3b132a719624.001",
			"normalTexture":{
				"index":0
			},
			"pbrMetallicRoughness":{
				"baseColorTexture":{
					"index":1
				},
				"metallicRoughnessTexture":{
					"index":2
				}
			}
		}
	],
	"meshes":[
		{
			"name":"Mesh_0.004",
			"primitives":[
				{
					"attributes":{
						"POSITION":0,
						"NORMAL":1,
						"TEXCOORD_0":2
					},
					"indices":3,
					"material":0
				}
			]
		}
	],
	"textures":[
		{
			"sampler":0,
			"source":0
		},
		{
			"sampler":0,
			"source":1
		},
		{
			"sampler":0,
			"source":2
		}
	],
	"images":[
		{
			"mimeType":"image/jpeg",
			"name":"Image_2",
			"uri":"Image_2.jpg"
		},
		{
			"mimeType":"image/jpeg",
			"name":"Image_1",
			"uri":"Image_1.jpg"
		},
		{
			"mimeType":"image/jpeg",
			"name":"Image_0",
			"uri":"Image_0.jpg"
		}
	],
	"accessors":[
		{
			"bufferView":0,
			"componentType":5126,
			"count":204685,
			"max":[
				0.1583847850561142,
				0.315363347530365,
				0.500002384185791
			],
			"min":[
				-0.1584077626466751,
				-0.3153529167175293,
				-0.5
			],
			"type":"VEC3"
		},
		{
			"bufferView":1,
			"componentType":5126,
			"count":204685,
			"type":"VEC3"
		},
		{
			"bufferView":2,
			"componentType":5126,
			"count":204685,
			"type":"VEC2"
		},
		{
			"bufferView":3,
			"componentType":5125,
			"count":1138725,
			"type":"SCALAR"
		}
	],
	"bufferViews":[
		{
			"buffer":0,
			"byteLength":2456220,
			"byteOffset":0,
			"target":34962
		},
		{
			"buffer":0,
			"byteLength":2456220,
			"byteOffset":2456220,
			"target":34962
		},
		{
			"buffer":0,
			"byteLength":1637480,
			"byteOffset":4912440,
			"target":34962
		},
		{
			"buffer":0,
			"byteLength":4554900,
			"byteOffset":6549920,
			"target":34963
		}
	],
	"samplers":[
		{
			"magFilter":9729,
			"minFilter":9987
		}
	],
	"buffers":[
		{
			"byteLength":11104820,
			"uri":"KELINCI.bin"
		}
	]
}
