{
	"asset":{
		"generator":"Khronos glTF Blender I/O v4.3.47",
		"version":"2.0"
	},
	"scene":0,
	"scenes":[
		{
			"name":"Scene",
			"nodes":[
				0
			]
		}
	],
	"nodes":[
		{
			"mesh":0,
			"name":"tripo_node_b2430244-2a86-41ad-a51b-82e3025e38f4",
			"scale":[
				1.537113904953003,
				1.537113904953003,
				1.537113904953003
			]
		}
	],
	"materials":[
		{
			"name":"tripo_material_b2430244-2a86-41ad-a51b-82e3025e38f4",
			"normalTexture":{
				"index":0
			},
			"pbrMetallicRoughness":{
				"baseColorTexture":{
					"index":1
				},
				"metallicRoughnessTexture":{
					"index":2
				}
			}
		}
	],
	"meshes":[
		{
			"name":"Mesh_0.007",
			"primitives":[
				{
					"attributes":{
						"POSITION":0,
						"NORMAL":1,
						"TEXCOORD_0":2
					},
					"indices":3,
					"material":0
				}
			]
		}
	],
	"textures":[
		{
			"sampler":0,
			"source":0
		},
		{
			"sampler":0,
			"source":1
		},
		{
			"sampler":0,
			"source":2
		}
	],
	"images":[
		{
			"mimeType":"image/jpeg",
			"name":"Image_2",
			"uri":"Image_2.jpg"
		},
		{
			"mimeType":"image/jpeg",
			"name":"Image_1",
			"uri":"Image_1.jpg"
		},
		{
			"mimeType":"image/jpeg",
			"name":"Image_0",
			"uri":"Image_0.jpg"
		}
	],
	"accessors":[
		{
			"bufferView":0,
			"componentType":5126,
			"count":202893,
			"max":[
				0.3600093126296997,
				0.23100581765174866,
				0.49999868869781494
			],
			"min":[
				-0.36000439524650574,
				-0.23099687695503235,
				-0.5
			],
			"type":"VEC3"
		},
		{
			"bufferView":1,
			"componentType":5126,
			"count":202893,
			"type":"VEC3"
		},
		{
			"bufferView":2,
			"componentType":5126,
			"count":202893,
			"type":"VEC2"
		},
		{
			"bufferView":3,
			"componentType":5125,
			"count":1164042,
			"type":"SCALAR"
		}
	],
	"bufferViews":[
		{
			"buffer":0,
			"byteLength":2434716,
			"byteOffset":0,
			"target":34962
		},
		{
			"buffer":0,
			"byteLength":2434716,
			"byteOffset":2434716,
			"target":34962
		},
		{
			"buffer":0,
			"byteLength":1623144,
			"byteOffset":4869432,
			"target":34962
		},
		{
			"buffer":0,
			"byteLength":4656168,
			"byteOffset":6492576,
			"target":34963
		}
	],
	"samplers":[
		{
			"magFilter":9729,
			"minFilter":9987
		}
	],
	"buffers":[
		{
			"byteLength":11148744,
			"uri":"LABI.bin"
		}
	]
}
