{
	"asset":{
		"generator":"Khronos glTF Blender I/O v4.3.47",
		"version":"2.0"
	},
	"extensionsUsed":[
		"KHR_materials_specular",
		"KHR_materials_ior"
	],
	"scene":0,
	"scenes":[
		{
			"name":"Scene",
			"nodes":[
				0
			]
		}
	],
	"nodes":[
		{
			"mesh":0,
			"name":"tripo_node_6abc88f5-9492-4186-bce3-af5f8495ef87",
			"scale":[
				4.947847843170166,
				4.947847843170166,
				4.947847843170166
			],
			"translation":[
				0,
				1.0145801305770874,
				0
			]
		}
	],
	"materials":[
		{
			"extensions":{
				"KHR_materials_specular":{
					"specularFactor":0.6000000238418579
				},
				"KHR_materials_ior":{
					"ior":1.4000000953674316
				}
			},
			"name":"tripo_material_6abc88f5-9492-4186-bce3-af5f8495ef87",
			"normalTexture":{
				"index":0
			},
			"pbrMetallicRoughness":{
				"baseColorTexture":{
					"index":1
				},
				"metallicRoughnessTexture":{
					"index":2
				}
			}
		}
	],
	"meshes":[
		{
			"name":"Mesh_0.001",
			"primitives":[
				{
					"attributes":{
						"POSITION":0,
						"NORMAL":1,
						"TEXCOORD_0":2
					},
					"indices":3,
					"material":0
				}
			]
		}
	],
	"textures":[
		{
			"sampler":0,
			"source":0
		},
		{
			"sampler":0,
			"source":1
		},
		{
			"sampler":0,
			"source":2
		}
	],
	"images":[
		{
			"mimeType":"image/jpeg",
			"name":"Image_2",
			"uri":"Image_2.jpg"
		},
		{
			"mimeType":"image/jpeg",
			"name":"Image_1",
			"uri":"Image_1.jpg"
		},
		{
			"mimeType":"image/jpeg",
			"name":"Image_0",
			"uri":"Image_0.jpg"
		}
	],
	"accessors":[
		{
			"bufferView":0,
			"componentType":5126,
			"count":149966,
			"max":[
				0.1915460079908371,
				0.26928046345710754,
				0.5
			],
			"min":[
				-0.1915341466665268,
				-0.2692657709121704,
				-0.5000003576278687
			],
			"type":"VEC3"
		},
		{
			"bufferView":1,
			"componentType":5126,
			"count":149966,
			"type":"VEC3"
		},
		{
			"bufferView":2,
			"componentType":5126,
			"count":149966,
			"type":"VEC2"
		},
		{
			"bufferView":3,
			"componentType":5125,
			"count":858318,
			"type":"SCALAR"
		}
	],
	"bufferViews":[
		{
			"buffer":0,
			"byteLength":1799592,
			"byteOffset":0,
			"target":34962
		},
		{
			"buffer":0,
			"byteLength":1799592,
			"byteOffset":1799592,
			"target":34962
		},
		{
			"buffer":0,
			"byteLength":1199728,
			"byteOffset":3599184,
			"target":34962
		},
		{
			"buffer":0,
			"byteLength":3433272,
			"byteOffset":4798912,
			"target":34963
		}
	],
	"samplers":[
		{
			"magFilter":9729,
			"minFilter":9987
		}
	],
	"buffers":[
		{
			"byteLength":8232184,
			"uri":"badakgltf.bin"
		}
	]
}
