{
	"asset":{
		"generator":"Khronos glTF Blender I/O v4.3.47",
		"version":"2.0"
	},
	"extensionsUsed":[
		"KHR_materials_specular",
		"KHR_materials_ior"
	],
	"scene":0,
	"scenes":[
		{
			"name":"Scene",
			"nodes":[
				0
			]
		}
	],
	"nodes":[
		{
			"mesh":0,
			"name":"tripo_node_01524aaf-6cd0-42c5-8e5f-8102d946f3a6",
			"scale":[
				2.229440927505493,
				2.229440927505493,
				2.229440927505493
			],
			"translation":[
				0,
				0.19468261301517487,
				0
			]
		}
	],
	"materials":[
		{
			"extensions":{
				"KHR_materials_specular":{
					"specularFactor":0.4000000059604645
				},
				"KHR_materials_ior":{
					"ior":1.4000000953674316
				}
			},
			"name":"tripo_material_01524aaf-6cd0-42c5-8e5f-8102d946f3a6",
			"normalTexture":{
				"index":0
			},
			"pbrMetallicRoughness":{
				"baseColorTexture":{
					"index":1
				},
				"metallicFactor":0,
				"metallicRoughnessTexture":{
					"index":2
				}
			}
		}
	],
	"meshes":[
		{
			"name":"Mesh_0.002",
			"primitives":[
				{
					"attributes":{
						"POSITION":0,
						"NORMAL":1,
						"TEXCOORD_0":2
					},
					"indices":3,
					"material":0
				}
			]
		}
	],
	"textures":[
		{
			"sampler":0,
			"source":0
		},
		{
			"sampler":0,
			"source":1
		},
		{
			"sampler":0,
			"source":2
		}
	],
	"images":[
		{
			"mimeType":"image/jpeg",
			"name":"Image_2",
			"uri":"Image_2.jpg"
		},
		{
			"mimeType":"image/jpeg",
			"name":"Image_1",
			"uri":"Image_1.jpg"
		},
		{
			"mimeType":"image/png",
			"name":"Image_0",
			"uri":"Image_0.png"
		}
	],
	"accessors":[
		{
			"bufferView":0,
			"componentType":5126,
			"count":69749,
			"max":[
				0.23404353857040405,
				0.3588053286075592,
				0.5000407695770264
			],
			"min":[
				-0.23402169346809387,
				-0.35879701375961304,
				-0.5
			],
			"type":"VEC3"
		},
		{
			"bufferView":1,
			"componentType":5126,
			"count":69749,
			"type":"VEC3"
		},
		{
			"bufferView":2,
			"componentType":5126,
			"count":69749,
			"type":"VEC2"
		},
		{
			"bufferView":3,
			"componentType":5125,
			"count":383964,
			"type":"SCALAR"
		}
	],
	"bufferViews":[
		{
			"buffer":0,
			"byteLength":836988,
			"byteOffset":0,
			"target":34962
		},
		{
			"buffer":0,
			"byteLength":836988,
			"byteOffset":836988,
			"target":34962
		},
		{
			"buffer":0,
			"byteLength":557992,
			"byteOffset":1673976,
			"target":34962
		},
		{
			"buffer":0,
			"byteLength":1535856,
			"byteOffset":2231968,
			"target":34963
		}
	],
	"samplers":[
		{
			"magFilter":9729,
			"minFilter":9987
		}
	],
	"buffers":[
		{
			"byteLength":3767824,
			"uri":"GELATIK.bin"
		}
	]
}
