{
	"asset":{
		"generator":"Khronos glTF Blender I/O v4.3.47",
		"version":"2.0"
	},
	"scene":0,
	"scenes":[
		{
			"name":"Scene",
			"nodes":[
				0
			]
		}
	],
	"nodes":[
		{
			"mesh":0,
			"name":"tripo_node_091c476b-840b-40b2-b8ec-6b88b3789584",
			"scale":[
				2.288231372833252,
				2.288231372833252,
				2.288231372833252
			],
			"translation":[
				0,
				0.9851757287979126,
				0
			]
		}
	],
	"materials":[
		{
			"name":"tripo_material_091c476b-840b-40b2-b8ec-6b88b3789584",
			"normalTexture":{
				"index":0
			},
			"pbrMetallicRoughness":{
				"baseColorTexture":{
					"index":1
				},
				"metallicRoughnessTexture":{
					"index":2
				}
			}
		}
	],
	"meshes":[
		{
			"name":"Mesh_0.010",
			"primitives":[
				{
					"attributes":{
						"POSITION":0,
						"NORMAL":1,
						"TEXCOORD_0":2
					},
					"indices":3,
					"material":0
				}
			]
		}
	],
	"textures":[
		{
			"sampler":0,
			"source":0
		},
		{
			"sampler":0,
			"source":1
		},
		{
			"sampler":0,
			"source":2
		}
	],
	"images":[
		{
			"mimeType":"image/jpeg",
			"name":"Image_2",
			"uri":"Image_2.jpg"
		},
		{
			"mimeType":"image/jpeg",
			"name":"Image_1",
			"uri":"Image_1.jpg"
		},
		{
			"mimeType":"image/jpeg",
			"name":"Image_0",
			"uri":"Image_0.jpg"
		}
	],
	"accessors":[
		{
			"bufferView":0,
			"componentType":5126,
			"count":293806,
			"max":[
				0.27276039123535156,
				0.4699128568172455,
				0.49999916553497314
			],
			"min":[
				-0.2727436423301697,
				-0.46984097361564636,
				-0.5
			],
			"type":"VEC3"
		},
		{
			"bufferView":1,
			"componentType":5126,
			"count":293806,
			"type":"VEC3"
		},
		{
			"bufferView":2,
			"componentType":5126,
			"count":293806,
			"type":"VEC2"
		},
		{
			"bufferView":3,
			"componentType":5125,
			"count":1499034,
			"type":"SCALAR"
		}
	],
	"bufferViews":[
		{
			"buffer":0,
			"byteLength":3525672,
			"byteOffset":0,
			"target":34962
		},
		{
			"buffer":0,
			"byteLength":3525672,
			"byteOffset":3525672,
			"target":34962
		},
		{
			"buffer":0,
			"byteLength":2350448,
			"byteOffset":7051344,
			"target":34962
		},
		{
			"buffer":0,
			"byteLength":5996136,
			"byteOffset":9401792,
			"target":34963
		}
	],
	"samplers":[
		{
			"magFilter":9729,
			"minFilter":9987
		}
	],
	"buffers":[
		{
			"byteLength":15397928,
			"uri":"JALAK%20.bin"
		}
	]
}
